<svg width="20" height="20" viewBox="0 0 20 20" fill="none" xmlns="http://www.w3.org/2000/svg">
<g clip-path="url(#clip0_82_313)">
<rect x="1.5" y="5.5" width="17" height="9" fill="#717171"/>
<path d="M4.18426 12.5H3.23406L4.97723 7.55078H6.07098L7.82098 12.5H6.87078L6.46063 11.2764H4.59441L4.18426 12.5ZM4.83367 10.5586H6.22137L5.54461 8.5625H5.50359L4.83367 10.5586ZM8.42773 7.55078L9.71289 11.4541H9.76758L11.0596 7.55078H12.0371L10.2871 12.5H9.19336L7.4502 7.55078H8.42773ZM15.6038 9.12988C15.4466 8.60352 15.0364 8.28223 14.4349 8.28223C13.6351 8.28223 13.0609 8.9043 13.0609 10.0186C13.0609 11.1465 13.6282 11.7686 14.4554 11.7686C15.2005 11.7686 15.679 11.3174 15.6927 10.6133H14.5443V9.90918H16.554V10.5039C16.554 11.7754 15.679 12.5684 14.4554 12.5684C13.0882 12.5684 12.1654 11.5977 12.1654 10.0254C12.1654 8.43945 13.1292 7.48242 14.428 7.48242C15.5218 7.48242 16.3626 8.15918 16.513 9.12988H15.6038Z" fill="white"/>
</g>
<defs>
<clipPath id="clip0_82_313">
<rect width="17" height="17" fill="white" transform="translate(1.5 1.5)"/>
</clipPath>
</defs>
</svg>
