<svg width="16" height="16" viewBox="0 0 16 16" fill="none" xmlns="http://www.w3.org/2000/svg">
<g clip-path="url(#clip0_414_1205)">
<path d="M5.33398 3.33334C5.70202 3.33352 6.00098 3.63225 6.00098 4.00034V12.0003C6.0008 12.3683 5.70192 12.6672 5.33398 12.6673C4.9659 12.6673 4.66717 12.3684 4.66699 12.0003V4.00034C4.66699 3.63215 4.96579 3.33334 5.33398 3.33334ZM10.834 4.12241C11.11 4.12258 11.334 4.34637 11.334 4.62241V11.3773C11.3339 11.5007 11.2876 11.6195 11.2051 11.7113C11.0203 11.9165 10.7043 11.9331 10.499 11.7484L6.72754 8.35287L6.70898 8.33432C6.52441 8.12906 6.54187 7.81295 6.74707 7.62827L10.499 4.25034C10.5908 4.16778 10.7105 4.12241 10.834 4.12241Z" fill="white"/>
</g>
<defs>
<clipPath id="clip0_414_1205">
<rect width="16" height="16" fill="white"/>
</clipPath>
</defs>
</svg>
