<svg width="24" height="24" viewBox="0 0 24 24" fill="none" xmlns="http://www.w3.org/2000/svg">
<g clip-path="url(#clip0_6_1022)">
<path d="M8.25 19.5L8.25 4.5C8.25 4.08579 7.91421 3.75 7.5 3.75H5.25C4.83579 3.75 4.5 4.08579 4.5 4.5L4.5 19.5C4.5 19.9142 4.83579 20.25 5.25 20.25H7.5C7.91421 20.25 8.25 19.9142 8.25 19.5Z" stroke="#33363D" stroke-width="1.6" stroke-linecap="round" stroke-linejoin="round"/>
<path d="M15 19.5L15 4.5C15 4.08579 14.6642 3.75 14.25 3.75H12C11.5858 3.75 11.25 4.08579 11.25 4.5V19.5C11.25 19.9142 11.5858 20.25 12 20.25H14.25C14.6642 20.25 15 19.9142 15 19.5Z" stroke="#33363D" stroke-width="1.6" stroke-linecap="round" stroke-linejoin="round"/>
<path d="M18 12H22.5" stroke="#33363D" stroke-width="1.6" stroke-linecap="round" stroke-linejoin="round"/>
<path d="M20.25 9.75V14.25" stroke="#33363D" stroke-width="1.6" stroke-linecap="round" stroke-linejoin="round"/>
</g>
<defs>
<clipPath id="clip0_6_1022">
<rect width="24" height="24" fill="white"/>
</clipPath>
</defs>
</svg>
